<svg width="46" height="41" viewBox="0 0 46 41" fill="none" xmlns="http://www.w3.org/2000/svg">
<rect x="0.5" y="1" width="40" height="40" rx="5" fill="#F5F5F5"/>
<g clip-path="url(#clip0_241_1391)">
<rect x="4.5" y="5" width="32" height="32" rx="16" fill="white"/>
<path d="M31.8137 9.68627C28.7917 6.66428 24.7737 5 20.4999 5C16.2262 5 12.2083 6.66428 9.18627 9.68627C6.16428 12.7083 4.5 16.7262 4.5 21C4.5 25.2738 6.16428 29.2917 9.18627 32.3137C12.2083 35.3356 16.2262 36.9999 20.5 36.9999C24.7738 36.9999 28.7917 35.3356 31.8137 32.3137C34.8357 29.2917 36.5 25.2737 36.5 21C36.4999 16.7262 34.8356 12.7083 31.8137 9.68627ZM20.4999 35.8713C12.2999 35.8713 5.62868 29.2 5.62868 21C5.62868 12.8 12.2999 6.12868 20.4999 6.12868C28.7 6.12868 35.3712 12.8 35.3712 21C35.3712 29.2 28.7 35.8713 20.4999 35.8713Z" fill="#00769D"/>
<path d="M14.0991 14.8758H12.3319L17.1496 28.4943L19.8467 20.7869L17.7556 14.8758H15.8911V13.5781H24.1477V14.8758H22.2142L27.0319 28.4943L28.7637 23.5454C31.0354 17.205 26.9017 15.2299 26.9017 13.8148C26.9017 12.3998 28.0489 11.2528 29.4638 11.2528C29.5404 11.2528 29.6147 11.2569 29.6875 11.2637C27.29 9.00041 24.0572 7.61247 20.4999 7.61247C15.8517 7.61247 11.7574 9.98177 9.35718 13.5781H14.0989V14.8758H14.0991Z" fill="#00769D"/>
<path d="M7.11243 21C7.11243 26.1254 9.99324 30.5774 14.2235 32.827L8.18199 15.749C7.49378 17.3613 7.11243 19.1361 7.11243 21Z" fill="#00769D"/>
<path d="M32.151 14.4031C32.3425 15.5306 32.2845 16.7979 31.9907 18.0701H32.0439L31.8415 18.6485C31.7216 19.0662 31.5705 19.4934 31.399 19.9132L26.7925 32.8184C31.0139 30.566 33.8874 26.1189 33.8874 20.9999C33.8874 18.6013 33.2559 16.3503 32.151 14.4031Z" fill="#00769D"/>
<path d="M16.3711 33.7376C17.6717 34.1589 19.059 34.3874 20.5 34.3874C21.8744 34.3874 23.2003 34.1799 24.4485 33.7952L20.5325 22.7255L16.3711 33.7376Z" fill="#00769D"/>
</g>
<circle cx="40.5" cy="36" r="5" fill="#DDC02C"/>
<path d="M44.4323 0.615388C43.255 -0.322765 41.504 -0.154018 40.4234 0.888597L40.0002 1.2964L39.5769 0.888597C38.4984 -0.154018 36.7453 -0.322765 35.568 0.615388C34.2188 1.69215 34.1479 3.62471 35.3553 4.79187L39.5125 8.80564C39.781 9.06479 40.2171 9.06479 40.4857 8.80564L44.6428 4.79187C45.8524 3.62471 45.7815 1.69215 44.4323 0.615388Z" fill="#FF6F6F"/>
<defs>
<clipPath id="clip0_241_1391">
<rect x="4.5" y="5" width="32" height="32" rx="16" fill="white"/>
</clipPath>
</defs>
</svg>
