<svg width="46" height="40" viewBox="0 0 46 40" fill="none" xmlns="http://www.w3.org/2000/svg">
<rect x="0.5" width="40" height="40" rx="5" fill="#F5F5F5"/>
<g clip-path="url(#clip0_237_796)">
<path d="M10.8125 5.50333H30.1875C33.125 5.50333 35.5 7.85755 35.5 10.7693V29.2314C35.5 32.1432 33.125 34.4974 30.1875 34.4974H10.8125C7.875 34.4974 5.5 32.1432 5.5 29.2314V10.7693C5.5 7.85755 7.875 5.50333 10.8125 5.50333Z" fill="#001E36"/>
<path d="M12.25 25.836V13.086C12.25 12.9993 12.2875 12.9497 12.375 12.9497C12.5875 12.9497 12.7875 12.9497 13.075 12.9373C13.375 12.925 13.6875 12.925 14.025 12.9126C14.3625 12.9002 14.725 12.9002 15.1125 12.8878C15.5 12.8754 15.875 12.8754 16.25 12.8754C17.275 12.8754 18.125 12.9993 18.825 13.2595C19.45 13.4701 20.025 13.8171 20.5 14.2755C20.9 14.672 21.2125 15.1553 21.4125 15.6881C21.6 16.2085 21.7 16.7413 21.7 17.2988C21.7 18.3644 21.45 19.2442 20.95 19.938C20.45 20.6319 19.75 21.1523 18.9375 21.4497C18.0875 21.7595 17.15 21.871 16.125 21.871C15.825 21.871 15.625 21.871 15.5 21.8586C15.375 21.8462 15.2 21.8462 14.9625 21.8462V25.8236C14.975 25.9103 14.9125 25.9847 14.825 25.9971H12.4C12.3 25.9971 12.25 25.9475 12.25 25.836ZM14.975 15.3411V19.5044C15.15 19.5168 15.3125 19.5292 15.4625 19.5292H16.125C16.6125 19.5292 17.1 19.4548 17.5625 19.3061C17.9625 19.1946 18.3125 18.9592 18.5875 18.6494C18.85 18.3397 18.975 17.9184 18.975 17.3732C18.9875 16.9891 18.8875 16.605 18.6875 16.2704C18.475 15.9483 18.175 15.7005 17.8125 15.5642C17.35 15.3783 16.85 15.304 16.3375 15.3163C16.0125 15.3163 15.725 15.3163 15.4875 15.3287C15.2375 15.3163 15.0625 15.3287 14.975 15.3411ZM29.5 18.7485C29.125 18.5503 28.725 18.414 28.3 18.3273C27.8375 18.2281 27.375 18.1662 26.9 18.1662C26.65 18.1538 26.3875 18.191 26.15 18.2529C25.9875 18.2901 25.85 18.3768 25.7625 18.5007C25.7 18.5999 25.6625 18.7238 25.6625 18.8353C25.6625 18.9468 25.7125 19.0583 25.7875 19.1574C25.9 19.2937 26.05 19.4053 26.2125 19.492C26.5 19.6407 26.8 19.777 27.1 19.9009C27.775 20.1239 28.425 20.4337 29.025 20.8054C29.4375 21.0656 29.775 21.4125 30.0125 21.8338C30.2125 22.2303 30.3125 22.664 30.3 23.11C30.3125 23.6924 30.1375 24.2748 29.8125 24.758C29.4625 25.2536 28.975 25.6377 28.4125 25.8608C27.8 26.121 27.05 26.2573 26.15 26.2573C25.575 26.2573 25.0125 26.2077 24.45 26.0962C24.0125 26.0218 23.575 25.8855 23.175 25.6997C23.0875 25.6501 23.025 25.5634 23.0375 25.4643V23.3083C23.0375 23.2711 23.05 23.2216 23.0875 23.1968C23.125 23.172 23.1625 23.1844 23.2 23.2092C23.6875 23.4942 24.2 23.6924 24.75 23.8163C25.225 23.9402 25.725 24.0022 26.225 24.0022C26.7 24.0022 27.0375 23.9402 27.2625 23.8287C27.4625 23.742 27.6 23.5313 27.6 23.3083C27.6 23.1348 27.5 22.9737 27.3 22.8127C27.1 22.6516 26.6875 22.4657 26.075 22.2303C25.4375 22.0073 24.85 21.7099 24.3 21.3382C23.9125 21.0656 23.5875 20.7063 23.35 20.285C23.15 19.8885 23.05 19.4548 23.0625 19.0211C23.0625 18.4883 23.2125 17.9803 23.4875 17.5219C23.8 17.0263 24.2625 16.6298 24.8 16.3819C25.3875 16.0846 26.125 15.9483 27.0125 15.9483C27.525 15.9483 28.05 15.9854 28.5625 16.0598C28.9375 16.1093 29.3 16.2085 29.6375 16.3448C29.6875 16.3572 29.7375 16.4067 29.7625 16.4563C29.775 16.5058 29.7875 16.5554 29.7875 16.605V18.6246C29.7875 18.6742 29.7625 18.7238 29.725 18.7485C29.6125 18.7733 29.55 18.7733 29.5 18.7485Z" fill="#31A8FF"/>
</g>
<circle cx="40.5" cy="35" r="5" fill="#FF9A00"/>
<defs>
<clipPath id="clip0_237_796">
<rect width="30" height="29" fill="white" transform="translate(5.5 5.5)"/>
</clipPath>
</defs>
</svg>
