<svg width="45" height="41" viewBox="0 0 45 41" fill="none" xmlns="http://www.w3.org/2000/svg">
<rect y="1" width="40" height="40" rx="5" fill="#F5F5F5"/>
<g clip-path="url(#clip0_237_1243)">
<path d="M9.17708 32.8575L7 6.05011L33 6.10398L30.698 32.8575L20.0981 35.9499L9.17708 32.8575Z" fill="#E34F26"/>
<path d="M20.0981 33.3609V8.60316L30.8051 8.63908L28.8958 30.7897L20.0981 33.3609Z" fill="#EF652A"/>
<path d="M27.8608 14.7882L28.164 11.5158H11.6932L12.6032 21.5484H23.9704L23.5247 25.8275L19.8843 26.8161L16.1904 25.7375L15.9941 23.1844H12.7282L13.1744 28.3985L19.884 30.2863L26.6472 28.3985L27.5572 18.2222H15.6192L15.2802 14.7882H27.8608Z" fill="white"/>
</g>
<circle cx="40" cy="36" r="5" fill="#DDC02C"/>
<path d="M43.9323 0.615388C42.755 -0.322765 41.004 -0.154018 39.9234 0.888597L39.5002 1.2964L39.0769 0.888597C37.9984 -0.154018 36.2453 -0.322765 35.068 0.615388C33.7188 1.69215 33.6479 3.62471 34.8553 4.79187L39.0125 8.80564C39.281 9.06479 39.7171 9.06479 39.9857 8.80564L44.1428 4.79187C45.3524 3.62471 45.2815 1.69215 43.9323 0.615388Z" fill="#FF6F6F"/>
<defs>
<clipPath id="clip0_237_1243">
<rect width="26" height="30" fill="white" transform="translate(7 6)"/>
</clipPath>
</defs>
</svg>
