<svg width="45" height="40" viewBox="0 0 45 40" fill="none" xmlns="http://www.w3.org/2000/svg">
<rect width="40" height="40" rx="5" fill="#F5F5F5"/>
<circle cx="40" cy="35" r="5" fill="#FF9A00"/>
<g clip-path="url(#clip0_315_715)">
<path d="M10.3125 5H29.6875C30.3853 4.99933 31.0764 5.1398 31.7213 5.41339C32.3661 5.68697 32.952 6.0883 33.4455 6.59439C33.9389 7.10048 34.3302 7.70141 34.597 8.36279C34.8637 9.02416 35.0007 9.73299 35 10.4487V29.5513C35.0007 30.267 34.8637 30.9758 34.597 31.6372C34.3302 32.2986 33.9389 32.8995 33.4455 33.4056C32.952 33.9117 32.3661 34.313 31.7213 34.5866C31.0764 34.8602 30.3853 35.0007 29.6875 35H10.3125C9.61467 35.0007 8.92356 34.8602 8.27872 34.5866C7.63388 34.313 7.04797 33.9117 6.55453 33.4056C6.06109 32.8995 5.6698 32.2986 5.40305 31.6372C5.13631 30.9758 4.99934 30.267 5 29.5513V10.4487C4.99934 9.73299 5.13631 9.02416 5.40305 8.36279C5.6698 7.70141 6.06109 7.10048 6.55453 6.59439C7.04797 6.0883 7.63388 5.68697 8.27872 5.41339C8.92356 5.1398 9.61467 4.99933 10.3125 5Z" fill="#49021F"/>
<path d="M15.9 12.8461V26C15.9 26.141 15.8375 26.2051 15.725 26.2051H13.275C13.1625 26.2051 13.1125 26.141 13.1125 26V12.8461C13.1125 12.7308 13.175 12.6795 13.2875 12.6795H15.725C15.744 12.6764 15.7634 12.6773 15.7819 12.6822C15.8005 12.6871 15.818 12.6958 15.8332 12.7077C15.8484 12.7197 15.861 12.7348 15.8704 12.752C15.8797 12.7692 15.8856 12.7881 15.8875 12.8077C15.8923 12.8127 15.8958 12.8188 15.898 12.8255C15.9002 12.8321 15.9009 12.8392 15.9 12.8461ZM23.1 26.4102C22.1735 26.4258 21.2552 26.2287 20.4125 25.8333C19.6285 25.4573 18.9714 24.8503 18.525 24.0897C18.0625 23.3077 17.8375 22.3333 17.8375 21.1667C17.8249 20.2179 18.0624 19.2832 18.525 18.4615C18.9994 17.6264 19.6865 16.9394 20.5125 16.4743C21.3875 15.9743 22.4375 15.7308 23.675 15.7308C23.7627 15.7297 23.8504 15.734 23.9375 15.7436C24.05 15.7564 24.175 15.7564 24.325 15.7692V11.7179C24.325 11.6282 24.3625 11.5769 24.45 11.5769H26.9875C27.0156 11.573 27.044 11.5801 27.0671 11.5967C27.0903 11.6134 27.1065 11.6383 27.1125 11.6667V23.8974C27.1125 24.1282 27.125 24.3846 27.1375 24.6667C27.15 24.9487 27.175 25.1923 27.1875 25.4102C27.1902 25.4535 27.1796 25.4966 27.1572 25.5334C27.1348 25.5702 27.1017 25.5989 27.0625 25.6154C26.4078 25.8976 25.7244 26.104 25.025 26.2308C24.3898 26.3488 23.7456 26.4089 23.1 26.4102ZM24.325 23.8461V18.2051C24.2137 18.1776 24.1011 18.1562 23.9875 18.141C23.85 18.1282 23.7125 18.1154 23.575 18.1154C23.0851 18.1097 22.6008 18.224 22.1625 18.4487C21.7354 18.667 21.3697 18.9936 21.1 19.3974C20.825 19.8077 20.6875 20.359 20.6875 21.0256C20.6767 21.4756 20.7488 21.9236 20.9 22.3461C21.0209 22.6878 21.2129 22.9984 21.4625 23.2564C21.7035 23.4923 21.9945 23.6678 22.3125 23.7692C22.6474 23.8817 22.9977 23.938 23.35 23.9359C23.5375 23.9359 23.7125 23.9231 23.875 23.9102C24.0278 23.9223 24.1813 23.9005 24.325 23.8461Z" fill="#FF3366"/>
</g>
<defs>
<clipPath id="clip0_315_715">
<rect width="30" height="30" fill="white" transform="translate(5 5)"/>
</clipPath>
</defs>
</svg>
