<svg width="46" height="41" viewBox="0 0 46 41" fill="none" xmlns="http://www.w3.org/2000/svg">
<rect x="0.5" y="1" width="40" height="40" rx="5" fill="#F5F5F5"/>
<path d="M15.3333 36C16.6152 36 17.8446 35.4908 18.751 34.5843C19.6574 33.6779 20.1667 32.4485 20.1667 31.1667V26.3333H15.3333C14.0515 26.3333 12.8221 26.8426 11.9157 27.749C11.0092 28.6554 10.5 29.8848 10.5 31.1667C10.5 32.4485 11.0092 33.6779 11.9157 34.5843C12.8221 35.4908 14.0515 36 15.3333 36Z" fill="#0ACF83"/>
<path d="M10.5 21.5C10.5 20.2181 11.0092 18.9887 11.9157 18.0823C12.8221 17.1759 14.0515 16.6667 15.3333 16.6667H20.1667V26.3333H15.3333C14.0515 26.3333 12.8221 25.8241 11.9157 24.9177C11.0092 24.0113 10.5 22.7819 10.5 21.5Z" fill="#A259FF"/>
<path d="M10.5 11.8333C10.5 10.5521 11.0087 9.3233 11.9143 8.41698C12.8199 7.51067 14.0483 7.001 15.3296 7H20.1629V16.6667H15.3333C14.0515 16.6667 12.8221 16.1574 11.9157 15.251C11.0092 14.3446 10.5 13.1152 10.5 11.8333Z" fill="#F24E1E"/>
<path d="M20.1666 7H25C26.2818 7 27.5112 7.50922 28.4176 8.41565C29.3241 9.32208 29.8333 10.5515 29.8333 11.8333C29.8333 13.1152 29.3241 14.3446 28.4176 15.251C27.5112 16.1574 26.2818 16.6667 25 16.6667H20.1666V7Z" fill="#FF7262"/>
<path d="M29.8333 21.5C29.8333 22.7819 29.3241 24.0113 28.4176 24.9177C27.5112 25.8241 26.2818 26.3333 25 26.3333C23.7181 26.3333 22.4887 25.8241 21.5823 24.9177C20.6759 24.0113 20.1666 22.7819 20.1666 21.5C20.1666 20.2181 20.6759 18.9887 21.5823 18.0823C22.4887 17.1759 23.7181 16.6667 25 16.6667C26.2818 16.6667 27.5112 17.1759 28.4176 18.0823C29.3241 18.9887 29.8333 20.2181 29.8333 21.5Z" fill="#1ABCFE"/>
<circle cx="40.5" cy="36" r="5" fill="#DDC02C"/>
<path d="M44.4323 0.615388C43.255 -0.322765 41.504 -0.154018 40.4234 0.888597L40.0002 1.2964L39.5769 0.888597C38.4984 -0.154018 36.7453 -0.322765 35.568 0.615388C34.2188 1.69215 34.1479 3.62471 35.3553 4.79187L39.5125 8.80564C39.781 9.06479 40.2171 9.06479 40.4857 8.80564L44.6428 4.79187C45.8524 3.62471 45.7815 1.69215 44.4323 0.615388Z" fill="#FF6F6F"/>
</svg>
