<svg width="85" height="41" viewBox="0 0 85 41" fill="none" xmlns="http://www.w3.org/2000/svg">
<rect y="1" width="80" height="40" rx="5" fill="#F5F5F5"/>
<g clip-path="url(#clip0_305_508)">
<path d="M8 33.9765H10.1084V25.716L13.3725 32.9198C13.7575 33.7882 14.285 34.1003 15.3188 34.1003C16.3525 34.1003 16.8594 33.7917 17.245 32.9198L20.5094 25.716V33.9796H22.6181V25.7296C22.6181 24.9248 22.2931 24.5355 21.6244 24.3345C20.0228 23.8383 18.9481 24.2676 18.4619 25.3407L15.2588 32.4503L12.1563 25.3376C11.69 24.2645 10.5953 23.8352 8.99375 24.3314C8.32438 24.5327 8 24.922 8 25.7265V33.9765ZM24.3706 27.2506H26.4784V31.8036C26.4588 32.0511 26.5584 32.6317 27.7134 32.6494C28.3028 32.6587 32.2616 32.6494 32.2984 32.6494V27.2279H34.4109C34.4203 27.2279 34.4088 34.6201 34.4091 34.6517C34.4206 36.4748 32.1297 36.8708 31.0741 36.9015H24.4166V35.4934L31.0859 35.4931C32.4428 35.3505 32.2828 34.6815 32.2828 34.456V33.907H27.8016C25.7166 33.8884 24.3891 32.985 24.3725 31.946C24.3709 31.8529 24.4175 27.2952 24.3713 27.2503L24.3706 27.2506Z" fill="#00618A"/>
<path d="M36.0363 33.9765H42.0981C42.8075 33.9765 43.4972 33.8292 44.045 33.5739C44.9575 33.1583 45.4034 32.5948 45.4034 31.8569V30.3279C45.4034 29.724 44.8966 29.1608 43.9034 28.7852C43.3763 28.5836 42.7275 28.4766 42.0991 28.4766H39.5444C38.6931 28.4766 38.2875 28.2217 38.1863 27.6584C38.1659 27.5914 38.1659 27.5344 38.1659 27.4705V26.5183C38.1659 26.4647 38.1659 26.4107 38.1863 26.3437C38.2875 25.9144 38.5106 25.7935 39.2606 25.7234C39.3216 25.7234 39.4025 25.7097 39.4638 25.7097H45.485V24.315H39.565C38.7134 24.315 38.2675 24.3687 37.8619 24.4893C36.6038 24.8785 36.0563 25.4988 36.0563 26.572V27.7927C36.0563 28.7319 37.1313 29.5367 38.935 29.7243C39.1381 29.7377 39.3406 29.751 39.5431 29.751H41.7328C41.8141 29.751 41.8953 29.751 41.9559 29.7647C42.6247 29.8183 42.9091 29.939 43.1116 30.1803C43.2366 30.3043 43.2741 30.4222 43.2741 30.5524V31.7732C43.2741 31.9208 43.1728 32.1088 42.97 32.2694C42.7875 32.4307 42.4834 32.5377 42.0778 32.5647C41.9966 32.5647 41.9359 32.578 41.855 32.578H36.0363V33.9731V33.9765ZM58.5563 31.5486C58.5563 32.984 59.6306 33.7889 61.8 33.9498C62.0024 33.9654 62.2052 33.9743 62.4081 33.9765H67.9025V32.5814H62.3675C61.1309 32.5814 60.6644 32.2728 60.6644 31.535V24.3178H58.5559V31.548L58.5563 31.5486ZM46.7484 31.6212V26.648C46.7484 25.3844 47.6422 24.618 49.4097 24.3761C49.5982 24.3494 49.7883 24.3359 49.9788 24.3358H53.9809C54.1781 24.3359 54.375 24.3494 54.5703 24.3761C56.3378 24.618 57.2316 25.3841 57.2316 26.648V31.6212C57.2316 32.6463 56.8519 33.1949 55.9769 33.5525L58.0538 35.4134H55.6056L53.9253 33.908L52.2338 34.0143H49.9788C49.5928 34.0143 49.1866 33.9604 48.7394 33.8394C47.3956 33.4765 46.7484 32.7775 46.7484 31.6212ZM49.0244 31.4972C49.0244 31.5645 49.0447 31.6314 49.065 31.7124C49.19 32.2905 49.7353 32.6131 50.565 32.6131H52.4806L50.7213 31.0366H53.1694L54.7006 32.4115C54.9834 32.262 55.1694 32.0331 55.2319 31.7394C55.2522 31.6724 55.2522 31.6051 55.2522 31.5378V26.7692C55.2522 26.7156 55.2522 26.6452 55.2319 26.581C55.1069 26.0435 54.5613 25.7343 53.7488 25.7343H50.5688C49.6313 25.7343 49.025 26.1374 49.025 26.7692V31.5009L49.0244 31.4972Z" fill="#E48E00"/>
<path d="M69.7575 22.0034C68.4616 21.9687 67.4713 22.0881 66.625 22.4423C66.3844 22.5431 66.0009 22.5456 65.9616 22.8449C66.0938 22.9823 66.1147 23.1876 66.2194 23.3566C66.4216 23.6814 66.7631 24.1165 67.0672 24.3441C67.3997 24.5932 67.7422 24.8599 68.0994 25.0761C68.7338 25.4601 69.4419 25.6793 70.0525 26.0636C70.4125 26.29 70.77 26.5754 71.1213 26.8315C71.2947 26.9581 71.4119 27.1547 71.6369 27.2338V27.1972C71.5181 27.0474 71.4878 26.8415 71.3791 26.6855L70.9 26.21C70.4313 25.5897 69.8369 25.051 69.2047 24.6003C68.7006 24.2412 67.5722 23.7561 67.3619 23.1736L67.325 23.137C67.6825 23.0967 68.1009 22.9686 68.4313 22.8812C68.9853 22.7338 69.4806 22.7717 70.0531 22.6253L70.8272 22.4057V22.2593C70.5378 21.9647 70.3316 21.5748 70.0163 21.3084C69.1913 20.6106 68.2903 19.9143 67.3631 19.3327C66.8488 19.0102 66.2131 18.8011 65.6678 18.5279C65.4844 18.4361 65.1622 18.3883 65.0413 18.2351C64.755 17.8729 64.5991 17.4132 64.3781 16.9945C63.9156 16.1106 63.4613 15.1448 63.0513 14.2146C62.7716 13.5804 62.5888 12.9548 62.2406 12.3857C60.5672 9.65511 58.7656 8.00697 55.9756 6.38737C55.3819 6.0431 54.6672 5.90663 53.9116 5.72892L52.6953 5.65572C52.4478 5.55337 52.1903 5.25253 51.9578 5.10676C51.0334 4.52677 48.6625 3.26663 47.9778 4.92067C47.5456 5.9668 48.6238 6.98751 49.0097 7.51786C49.2803 7.89005 49.6272 8.30658 49.8203 8.72497C49.9475 8.99976 49.9697 9.27549 50.0784 9.56641C50.3463 10.2798 50.5794 11.0623 50.9259 11.7244C51.1009 12.0594 51.2941 12.4123 51.5156 12.712C51.6516 12.8959 51.8844 12.9768 51.9209 13.2609C51.6934 13.5773 51.6803 14.0673 51.5522 14.468C50.9763 16.2706 51.1934 18.5108 52.0313 19.8451C52.2884 20.2545 52.8938 21.1328 53.7266 20.796C54.4547 20.5014 54.2891 19.5895 54.5006 18.7844C54.5475 18.6014 54.5188 18.468 54.6113 18.3455V18.3821L55.2747 19.6987C55.7653 20.4834 56.6372 21.3037 57.3753 21.8574C57.7581 22.1442 58.0628 22.6405 58.5547 22.8083V22.7717H58.5178C58.4219 22.6228 58.2719 22.5617 58.1491 22.4429C57.8606 22.1622 57.5397 21.8133 57.3013 21.492C56.6294 20.587 56.0363 19.597 55.4956 18.5657C55.2375 18.0735 55.0128 17.5305 54.7956 17.0296C54.7119 16.8363 54.7128 16.5445 54.5378 16.4443C54.2994 16.8115 53.9481 17.108 53.7638 17.5416C53.4688 18.2345 53.4306 19.0793 53.3216 19.9558C53.2569 19.9788 53.2856 19.963 53.2478 19.9924C52.7347 19.8696 52.5541 19.3451 52.3634 18.8951C51.8809 17.7569 51.7916 15.9251 52.2159 14.6157C52.3253 14.277 52.8222 13.2094 52.6213 12.8965C52.5253 12.5842 52.2088 12.4003 52.0316 12.1645C51.8128 11.8699 51.5934 11.481 51.4419 11.1404C51.0469 10.2534 50.8625 9.25781 50.4469 8.36054C50.2481 7.93192 49.9125 7.49833 49.6363 7.11994C49.3306 6.69814 48.9884 6.38675 48.7519 5.87934C48.6675 5.6979 48.5531 5.40791 48.6781 5.22089C48.6901 5.16716 48.7172 5.11793 48.7564 5.07902C48.7956 5.04012 48.8452 5.01315 48.8994 5.0013C49.1131 4.83786 49.7088 5.05558 49.9313 5.1477C50.5219 5.39147 51.0156 5.62347 51.5163 5.95254C51.7569 6.10761 51.9997 6.41652 52.29 6.5015H52.6213C53.14 6.61998 53.7213 6.53872 54.2056 6.68449C55.0625 6.94285 55.83 7.34511 56.5275 7.7818C58.6519 9.11297 60.3884 11.008 61.5766 13.2715C61.7678 13.6353 61.8503 13.9829 62.0188 14.3688C62.3584 15.1442 62.7863 15.9484 63.1244 16.7095C63.4619 17.4694 63.79 18.2354 64.2669 18.8675C64.5175 19.1994 65.4856 19.378 65.9253 19.5622C66.2338 19.6916 66.7388 19.8265 67.0309 20.0011C67.5888 20.3351 68.1294 20.7331 68.6528 21.099C68.9144 21.282 69.7184 21.6831 69.7584 22.0134L69.7575 22.0034Z" fill="#00618A"/>
<path fill-rule="evenodd" clip-rule="evenodd" d="M53.2844 8.06776C53.0141 8.0628 52.8232 8.09691 52.621 8.14095V8.17755H52.6578C52.7866 8.44056 53.0141 8.60959 53.1735 8.836L53.5422 9.60393L53.5791 9.56734C53.8072 9.40761 53.9119 9.15236 53.9103 8.7625C53.8188 8.66697 53.8053 8.54725 53.726 8.43312C53.6207 8.28114 53.4135 8.19492 53.2838 8.06714L53.2844 8.06776Z" fill="#00618A"/>
<path fill-rule="evenodd" clip-rule="evenodd" d="M68.8922 32.5418C68.8922 33.4629 69.6256 34.0838 70.446 34.0838C71.2663 34.0838 71.9997 33.4629 71.9997 32.5418C71.9997 31.6206 71.2663 30.9997 70.446 30.9997C69.6256 30.9997 68.8922 31.6206 68.8922 32.5418ZM71.6516 32.5418C71.6516 33.2408 71.1131 33.7631 70.4453 33.7631C69.7703 33.7631 69.2391 33.2408 69.2391 32.5418C69.2391 31.8427 69.7697 31.3204 70.4453 31.3204C71.1125 31.3204 71.6516 31.8427 71.6516 32.5418ZM70.8641 33.422H71.2119L70.7025 32.6491C70.976 32.6202 71.1828 32.4884 71.1828 32.1677C71.1828 31.8098 70.9547 31.6622 70.516 31.6622H69.8238V33.4223H70.1222V32.6615H70.3997L70.8638 33.4223L70.8641 33.422ZM70.1222 32.414V31.9084H70.466C70.6441 31.9084 70.8597 31.9413 70.8597 32.1473C70.8597 32.3938 70.665 32.4146 70.441 32.4146H70.1222V32.414Z" fill="#E48E00"/>
</g>
<circle cx="80" cy="36" r="5" fill="#FF9A00"/>
<path d="M83.9323 0.615388C82.755 -0.322765 81.004 -0.154018 79.9234 0.888597L79.5002 1.2964L79.0769 0.888597C77.9984 -0.154018 76.2453 -0.322765 75.068 0.615388C73.7188 1.69215 73.6479 3.62471 74.8553 4.79187L79.0125 8.80564C79.281 9.06479 79.7171 9.06479 79.9857 8.80564L84.1428 4.79187C85.3524 3.62471 85.2815 1.69215 83.9323 0.615388Z" fill="#FF6F6F"/>
<defs>
<clipPath id="clip0_305_508">
<rect width="64" height="33" fill="white" transform="translate(8 4)"/>
</clipPath>
</defs>
</svg>
