<svg width="46" height="41" viewBox="0 0 46 41" fill="none" xmlns="http://www.w3.org/2000/svg">
<rect x="0.5" y="1" width="40" height="40" rx="5" fill="#F5F5F5"/>
<mask id="mask0_237_921" style="mask-type:alpha" maskUnits="userSpaceOnUse" x="5" y="6" width="31" height="30">
<path fill-rule="evenodd" clip-rule="evenodd" d="M26.7736 35.8718C27.2461 36.0568 27.7848 36.045 28.2617 35.8143L34.4382 32.8269C35.0873 32.5129 35.5 31.8527 35.5 31.1283V10.8717C35.5 10.1474 35.0873 9.48716 34.4383 9.17324L28.2617 6.18572C27.6359 5.883 26.9034 5.95714 26.354 6.35857C26.2756 6.41591 26.2008 6.47994 26.1307 6.5505L14.3065 17.3938L9.15616 13.464C8.6767 13.0982 8.00609 13.1282 7.5608 13.5353L5.90891 15.0457C5.36423 15.5438 5.36361 16.4051 5.90756 16.904L10.3741 21L5.90756 25.096C5.36361 25.5949 5.36423 26.4562 5.90891 26.9543L7.5608 28.4647C8.00609 28.8718 8.6767 28.9018 9.15616 28.536L14.3065 24.6062L26.1307 35.4495C26.3178 35.6376 26.5374 35.7793 26.7736 35.8718ZM28.0046 14.1543L19.0327 21L28.0046 27.8456V14.1543Z" fill="white"/>
</mask>
<g mask="url(#mask0_237_921)">
<path d="M34.4384 9.17781L28.2571 6.18619C27.5416 5.83991 26.6865 5.98597 26.125 6.5504L5.88956 25.096C5.34528 25.5948 5.3459 26.4561 5.89091 26.9541L7.5438 28.4646C7.98936 28.8717 8.66039 28.9017 9.14013 28.5359L33.5083 9.95392C34.3258 9.33051 35.5 9.91662 35.5 10.9481V10.876C35.5 10.1519 35.0874 9.49191 34.4384 9.17781Z" fill="#0065A9"/>
<g filter="url(#filter0_d_237_921)">
<path d="M34.4384 32.8221L28.2571 35.8137C27.5416 36.16 26.6865 36.0139 26.125 35.4495L5.88956 16.9039C5.34528 16.4051 5.3459 15.5437 5.89091 15.0457L7.5438 13.5353C7.98936 13.1281 8.66039 13.0981 9.14013 13.464L33.5083 32.0459C34.3258 32.6693 35.5 32.0832 35.5 31.0518V31.1239C35.5 31.8479 35.0874 32.508 34.4384 32.8221Z" fill="#007ACC"/>
</g>
<g filter="url(#filter1_d_237_921)">
<path d="M28.2573 35.8142C27.5416 36.1603 26.6866 36.0139 26.125 35.4494C26.8169 36.145 28 35.6524 28 34.6688V7.33115C28 6.34755 26.8169 5.85496 26.125 6.55047C26.6866 5.98599 27.5416 5.83972 28.2573 6.18569L34.4376 9.17321C35.087 9.48713 35.5 10.1474 35.5 10.8717V31.1283C35.5 31.8527 35.087 32.5129 34.4376 32.8268L28.2573 35.8142Z" fill="#1F9CF0"/>
</g>
<g style="mix-blend-mode:overlay" opacity="0.25">
<path fill-rule="evenodd" clip-rule="evenodd" d="M26.7553 35.8718C27.2278 36.0568 27.7666 36.045 28.2435 35.8143L34.42 32.8269C35.069 32.513 35.4817 31.8527 35.4817 31.1284V10.8718C35.4817 10.1474 35.069 9.48717 34.42 9.17326L28.2435 6.18575C27.6176 5.88303 26.8851 5.95718 26.3358 6.3586C26.2573 6.41595 26.1826 6.47997 26.1124 6.55053L14.2883 17.3938L9.13791 13.464C8.65848 13.0982 7.98784 13.1282 7.54255 13.5353L5.89066 15.0458C5.34598 15.5438 5.34536 16.4051 5.88931 16.904L10.3559 21L5.88931 25.0961C5.34536 25.5949 5.34598 26.4563 5.89066 26.9543L7.54255 28.4647C7.98784 28.8719 8.65848 28.9018 9.13791 28.536L14.2883 24.6062L26.1124 35.4495C26.2995 35.6376 26.5191 35.7793 26.7553 35.8718ZM27.9863 14.1544L19.0145 21L27.9863 27.8457V14.1544Z" fill="url(#paint0_linear_237_921)"/>
</g>
</g>
<circle cx="40.5" cy="36" r="5" fill="#DDC02C"/>
<path d="M44.4323 0.615388C43.255 -0.322765 41.504 -0.154018 40.4234 0.888597L40.0002 1.2964L39.5769 0.888597C38.4984 -0.154018 36.7453 -0.322765 35.568 0.615388C34.2188 1.69215 34.1479 3.62471 35.3553 4.79187L39.5125 8.80564C39.781 9.06479 40.2171 9.06479 40.4857 8.80564L44.6428 4.79187C45.8524 3.62471 45.7815 1.69215 44.4323 0.615388Z" fill="#FF6F6F"/>
<defs>
<filter id="filter0_d_237_921" x="-2.85159" y="4.87518" width="46.6849" height="39.4579" filterUnits="userSpaceOnUse" color-interpolation-filters="sRGB">
<feFlood flood-opacity="0" result="BackgroundImageFix"/>
<feColorMatrix in="SourceAlpha" type="matrix" values="0 0 0 0 0 0 0 0 0 0 0 0 0 0 0 0 0 0 127 0" result="hardAlpha"/>
<feOffset/>
<feGaussianBlur stdDeviation="4.16667"/>
<feColorMatrix type="matrix" values="0 0 0 0 0 0 0 0 0 0 0 0 0 0 0 0 0 0 0.25 0"/>
<feBlend mode="overlay" in2="BackgroundImageFix" result="effect1_dropShadow_237_921"/>
<feBlend mode="normal" in="SourceGraphic" in2="effect1_dropShadow_237_921" result="shape"/>
</filter>
<filter id="filter1_d_237_921" x="17.7917" y="-2.33337" width="26.0417" height="46.6667" filterUnits="userSpaceOnUse" color-interpolation-filters="sRGB">
<feFlood flood-opacity="0" result="BackgroundImageFix"/>
<feColorMatrix in="SourceAlpha" type="matrix" values="0 0 0 0 0 0 0 0 0 0 0 0 0 0 0 0 0 0 127 0" result="hardAlpha"/>
<feOffset/>
<feGaussianBlur stdDeviation="4.16667"/>
<feColorMatrix type="matrix" values="0 0 0 0 0 0 0 0 0 0 0 0 0 0 0 0 0 0 0.25 0"/>
<feBlend mode="overlay" in2="BackgroundImageFix" result="effect1_dropShadow_237_921"/>
<feBlend mode="normal" in="SourceGraphic" in2="effect1_dropShadow_237_921" result="shape"/>
</filter>
<linearGradient id="paint0_linear_237_921" x1="20.4817" y1="6.00003" x2="20.4817" y2="36" gradientUnits="userSpaceOnUse">
<stop stop-color="white"/>
<stop offset="1" stop-color="white" stop-opacity="0"/>
</linearGradient>
</defs>
</svg>
