<svg width="46" height="40" viewBox="0 0 46 40" fill="none" xmlns="http://www.w3.org/2000/svg">
<rect x="0.5" width="40" height="40" rx="5" fill="#F5F5F5"/>
<g clip-path="url(#clip0_237_577)">
<path d="M10.8125 5H30.1875C33.125 5 35.5 7.4359 35.5 10.4487V29.5513C35.5 32.5641 33.125 35 30.1875 35H10.8125C7.875 35 5.5 32.5641 5.5 29.5513V10.4487C5.5 7.4359 7.875 5 10.8125 5Z" fill="#330000"/>
<path d="M20.0375 23H15.3875L14.4375 26.0128C14.4125 26.1282 14.3125 26.2051 14.2 26.1923H11.85C11.7125 26.1923 11.675 26.1154 11.7125 25.9615L15.7375 14.0769C15.775 13.9487 15.8125 13.8077 15.8625 13.6538C15.9125 13.3846 15.9375 13.1026 15.9375 12.8205C15.925 12.7564 15.975 12.6923 16.0375 12.6795C16.05 12.6795 16.0625 12.6795 16.075 12.6795H19.275C19.375 12.6795 19.425 12.7179 19.4375 12.7821L24 25.9872C24.0375 26.1282 24 26.1923 23.875 26.1923H21.2625C21.175 26.2051 21.0875 26.141 21.0625 26.0513L20.0375 23ZM16.1125 20.3974H19.2875C19.2125 20.1282 19.1125 19.8077 19 19.4744C18.8875 19.1282 18.775 18.7564 18.6625 18.3718C18.5375 17.9744 18.425 17.5897 18.3 17.1923C18.175 16.7949 18.0625 16.4231 17.9625 16.0513C17.8625 15.6923 17.775 15.359 17.6875 15.0513H17.6625C17.55 15.6026 17.4125 16.1538 17.2375 16.7051C17.05 17.3205 16.8625 17.9615 16.6625 18.6026C16.4875 19.2564 16.3 19.859 16.1125 20.3974Z" fill="#FF9A00"/>
<path d="M26.725 14.8718C26.3125 14.8846 25.9125 14.7179 25.6125 14.4231C25.325 14.1026 25.175 13.6795 25.1875 13.2436C25.175 12.8077 25.3375 12.3974 25.6375 12.1026C25.9375 11.8077 26.3375 11.6538 26.75 11.6538C27.2375 11.6538 27.6125 11.8077 27.8875 12.1026C28.1625 12.4103 28.3125 12.8205 28.3 13.2436C28.3125 13.6795 28.1625 14.1026 27.8625 14.4231C27.575 14.7308 27.15 14.8974 26.725 14.8718ZM25.325 26V16.1282C25.325 16 25.375 15.9487 25.4875 15.9487H27.9625C28.075 15.9487 28.125 16.0128 28.125 16.1282V26C28.125 26.141 28.075 26.2051 27.9625 26.2051H25.5125C25.3875 26.2051 25.325 26.1282 25.325 26Z" fill="#FF9A00"/>
</g>
<circle cx="40.5" cy="35" r="5" fill="#DDC02C"/>
<defs>
<clipPath id="clip0_237_577">
<rect width="30" height="30" fill="white" transform="translate(5.5 5)"/>
</clipPath>
</defs>
</svg>
