<svg width="45" height="41" viewBox="0 0 45 41" fill="none" xmlns="http://www.w3.org/2000/svg">
<rect y="1" width="40" height="40" rx="5" fill="#F5F5F5"/>
<g clip-path="url(#clip0_237_1257)">
<path d="M5 6H35V36H5V6Z" fill="#F0DB4F"/>
<path d="M32.5447 28.8451C32.3251 27.4762 31.4325 26.327 28.789 25.2548C27.8707 24.8327 26.847 24.5304 26.5418 23.8346C26.4335 23.4297 26.4192 23.2015 26.4876 22.9563C26.6844 22.1606 27.634 21.9125 28.3869 22.1407C28.8717 22.3032 29.3308 22.6768 29.6074 23.2728C30.9021 22.4344 30.8992 22.4401 31.8032 21.8641C31.4724 21.3508 31.2956 21.1141 31.0789 20.8945C30.3004 20.0247 29.2395 19.577 27.5428 19.6112C27.249 19.6483 26.9525 19.6882 26.6587 19.7253C25.8118 19.9392 25.0048 20.3841 24.5314 20.9801C23.1112 22.5913 23.5162 25.4116 25.2443 26.5723C26.9468 27.8498 29.4477 28.1407 29.7671 29.3356C30.0779 30.7985 28.692 31.2719 27.3146 31.1036C26.2994 30.8926 25.7348 30.3765 25.1245 29.4382C24.001 30.0884 24.001 30.0884 22.846 30.7529C23.1198 31.3517 23.4078 31.6227 23.8669 32.1417C26.0399 34.346 31.4781 34.2377 32.4534 30.9012C32.4933 30.7871 32.7557 30.0228 32.5447 28.8451ZM21.3089 19.788H18.5028C18.5028 22.212 18.4915 24.6188 18.4915 27.0428C18.4915 28.5856 18.5713 30 18.3204 30.4335C17.9097 31.2861 16.846 31.1806 16.3612 31.0152C15.8679 30.7728 15.6169 30.4277 15.3261 29.9401C15.2462 29.8004 15.1863 29.692 15.1663 29.6835C14.405 30.1483 13.6464 30.6159 12.885 31.0808C13.2643 31.8593 13.8232 32.5352 14.539 32.9743C15.6084 33.6159 17.0456 33.8127 18.5485 33.4677C19.5266 33.1825 20.3707 32.5922 20.8127 31.6939C21.4515 30.5162 21.3146 29.0903 21.3089 27.5133C21.3232 24.9411 21.3089 22.3688 21.3089 19.788Z" fill="#323330"/>
</g>
<circle cx="40" cy="36" r="5" fill="#DDC02C"/>
<path d="M43.9323 0.615388C42.755 -0.322765 41.004 -0.154018 39.9234 0.888597L39.5002 1.2964L39.0769 0.888597C37.9984 -0.154018 36.2453 -0.322765 35.068 0.615388C33.7188 1.69215 33.6479 3.62471 34.8553 4.79187L39.0125 8.80564C39.281 9.06479 39.7171 9.06479 39.9857 8.80564L44.1428 4.79187C45.3524 3.62471 45.2815 1.69215 43.9323 0.615388Z" fill="#FF6F6F"/>
<defs>
<clipPath id="clip0_237_1257">
<rect width="30" height="30" fill="white" transform="translate(5 6)"/>
</clipPath>
</defs>
</svg>
