<svg width="45" height="41" viewBox="0 0 45 41" fill="none" xmlns="http://www.w3.org/2000/svg">
<rect y="1" width="40" height="40" rx="5" fill="#F5F5F5"/>
<circle cx="40" cy="36" r="5" fill="#FF9A00"/>
<path d="M43.9323 0.615388C42.755 -0.322765 41.004 -0.154018 39.9234 0.888597L39.5002 1.2964L39.0769 0.888597C37.9984 -0.154018 36.2453 -0.322765 35.068 0.615388C33.7188 1.69215 33.6479 3.62471 34.8553 4.79187L39.0125 8.80564C39.281 9.06479 39.7171 9.06479 39.9857 8.80564L44.1428 4.79187C45.3524 3.62471 45.2815 1.69215 43.9323 0.615388Z" fill="#FF6F6F"/>
<g clip-path="url(#clip0_315_673)">
<path d="M10.3125 6H29.6875C30.3853 5.99933 31.0764 6.1398 31.7213 6.41339C32.3661 6.68697 32.952 7.0883 33.4455 7.59439C33.9389 8.10048 34.3302 8.70141 34.5969 9.36279C34.8637 10.0242 35.0007 10.733 35 11.4487V30.5513C35.0007 31.267 34.8637 31.9758 34.5969 32.6372C34.3302 33.2986 33.9389 33.8995 33.4455 34.4056C32.952 34.9117 32.3661 35.313 31.7213 35.5866C31.0764 35.8602 30.3853 36.0007 29.6875 36H10.3125C9.61467 36.0007 8.92356 35.8602 8.27872 35.5866C7.63388 35.313 7.04797 34.9117 6.55453 34.4056C6.06109 33.8995 5.6698 33.2986 5.40305 32.6372C5.13631 31.9758 4.99934 31.267 5 30.5513V11.4487C4.99934 10.733 5.13631 10.0242 5.40305 9.36279C5.6698 8.70141 6.06109 8.10048 6.55453 7.59439C7.04797 7.0883 7.63388 6.68697 8.27872 6.41339C8.92356 6.1398 9.61467 5.99933 10.3125 6Z" fill="#00005B"/>
<path d="M12.6 27.7397V14.1077C12.6 14.015 12.64 13.962 12.7333 13.962C12.96 13.962 13.1733 13.962 13.48 13.9487C13.7866 13.9355 14.1333 13.9355 14.4933 13.9222C14.8533 13.909 15.24 13.909 15.6533 13.8957C16.0666 13.8825 16.4666 13.8825 16.8666 13.8825C17.96 13.8825 18.8666 14.015 19.6133 14.2932C20.2826 14.519 20.893 14.8901 21.4 15.3795C21.8296 15.8078 22.1616 16.3228 22.3733 16.8897C22.5751 17.4418 22.6789 18.0246 22.68 18.612C22.68 19.7513 22.4133 20.6919 21.88 21.4338C21.3442 22.1746 20.5961 22.7379 19.7333 23.05C18.8266 23.3812 17.8266 23.5004 16.7333 23.5004C16.4133 23.5004 16.2 23.5004 16.0666 23.4872C15.9333 23.4739 15.7466 23.4739 15.4933 23.4739V27.7265C15.4963 27.7483 15.4948 27.7705 15.489 27.7917C15.4832 27.8129 15.4732 27.8328 15.4595 27.8501C15.4458 27.8674 15.4288 27.8818 15.4094 27.8924C15.39 27.903 15.3687 27.9097 15.3466 27.912H12.76C12.6533 27.912 12.6 27.859 12.6 27.7397ZM15.5066 16.5188V20.9701C15.6933 20.9833 15.8666 20.9966 16.0266 20.9966H16.7333C17.2538 20.9972 17.7712 20.9167 18.2666 20.7581C18.6917 20.6339 19.0714 20.39 19.36 20.056C19.64 19.7248 19.7733 19.2744 19.7733 18.6915C19.7859 18.2775 19.6795 17.8685 19.4666 17.5124C19.2443 17.1684 18.9174 16.9039 18.5333 16.7573C18.0328 16.5625 17.4972 16.4723 16.96 16.4923C16.6133 16.4923 16.3066 16.4923 16.0533 16.5056C15.8711 16.4937 15.6881 16.4981 15.5066 16.5188ZM24.5466 17.2872H26.88C26.9432 17.2887 27.0043 17.31 27.0546 17.3481C27.1048 17.3861 27.1417 17.439 27.16 17.4991C27.2007 17.6057 27.2275 17.717 27.24 17.8303C27.2666 17.9628 27.2933 18.1085 27.3066 18.241C27.32 18.3735 27.3333 18.5457 27.3333 18.7179C27.7337 18.2536 28.2174 17.8672 28.76 17.5786C29.3798 17.2366 30.0777 17.0586 30.7866 17.062C30.8086 17.059 30.8309 17.0605 30.8523 17.0662C30.8736 17.072 30.8936 17.082 30.911 17.0956C30.9284 17.1092 30.9429 17.1261 30.9536 17.1454C30.9643 17.1646 30.971 17.1858 30.9733 17.2077V19.844C30.9733 19.95 30.9066 19.9897 30.76 19.9897C30.2763 19.974 29.7925 20.0185 29.32 20.1222C28.9348 20.2012 28.5593 20.3211 28.2 20.4799C27.942 20.5955 27.7106 20.7623 27.52 20.9701V27.7265C27.52 27.859 27.4666 27.912 27.3466 27.912H24.72C24.6954 27.9161 24.6702 27.9152 24.646 27.9093C24.6217 27.9035 24.5989 27.8928 24.579 27.8779C24.559 27.8631 24.5423 27.8443 24.5299 27.8229C24.5175 27.8014 24.5095 27.7776 24.5066 27.753V20.3607C24.5066 20.0427 24.5066 19.7115 24.4933 19.3671C24.48 19.0226 24.48 18.6782 24.4666 18.3338C24.4666 18.0291 24.44 17.7376 24.4133 17.4329C24.4098 17.4172 24.4094 17.401 24.4122 17.3852C24.4149 17.3694 24.4208 17.3543 24.4295 17.3408C24.4382 17.3272 24.4495 17.3155 24.4627 17.3063C24.4759 17.2971 24.4909 17.2906 24.5066 17.2872C24.5066 17.2739 24.5333 17.2739 24.5466 17.2872Z" fill="#9999FF"/>
</g>
<defs>
<clipPath id="clip0_315_673">
<rect width="30" height="30" fill="white" transform="translate(5 6)"/>
</clipPath>
</defs>
</svg>
