<svg width="45" height="41" viewBox="0 0 45 41" fill="none" xmlns="http://www.w3.org/2000/svg">
<rect y="1" width="40" height="40" rx="5" fill="#F5F5F5"/>
<g clip-path="url(#clip0_237_1250)">
<path d="M9.17708 32.8573L7 6.05032L33 6.10419L30.698 32.8573L20.0981 35.9497L9.17708 32.8573Z" fill="#1B73BA"/>
<path d="M20.0981 33.3607V8.60337L30.8051 8.63929L28.8958 30.7897L20.0981 33.3607Z" fill="#1C88C7"/>
<path d="M28.1462 11.7678H11.6754L12.1216 15.0039H19.9375L12.2465 18.3301L12.6925 21.4584H24.0241L23.6136 25.8272L19.7769 26.5825L16.2973 25.6836L16.0295 23.2024H12.8353L13.2635 28.3626L20.1159 30.2863L26.683 28.1828L27.5218 18.0963H20.5798L28.146 14.932L28.1462 11.7678Z" fill="white"/>
</g>
<circle cx="40" cy="36" r="5" fill="#DDC02C"/>
<path d="M43.9323 0.615388C42.755 -0.322765 41.004 -0.154018 39.9234 0.888597L39.5002 1.2964L39.0769 0.888597C37.9984 -0.154018 36.2453 -0.322765 35.068 0.615388C33.7188 1.69215 33.6479 3.62471 34.8553 4.79187L39.0125 8.80564C39.281 9.06479 39.7171 9.06479 39.9857 8.80564L44.1428 4.79187C45.3524 3.62471 45.2815 1.69215 43.9323 0.615388Z" fill="#FF6F6F"/>
<defs>
<clipPath id="clip0_237_1250">
<rect width="26" height="30" fill="white" transform="translate(7 6)"/>
</clipPath>
</defs>
</svg>
