<svg width="45" height="41" viewBox="0 0 45 41" fill="none" xmlns="http://www.w3.org/2000/svg">
<rect y="1" width="40" height="40" rx="5" fill="#F5F5F5"/>
<circle cx="40" cy="36" r="5" fill="#FF9A00"/>
<path d="M43.9323 0.615388C42.755 -0.322765 41.004 -0.154018 39.9234 0.888597L39.5002 1.2964L39.0769 0.888597C37.9984 -0.154018 36.2453 -0.322765 35.068 0.615388C33.7188 1.69215 33.6479 3.62471 34.8553 4.79187L39.0125 8.80564C39.281 9.06479 39.7171 9.06479 39.9857 8.80564L44.1428 4.79187C45.3524 3.62471 45.2815 1.69215 43.9323 0.615388Z" fill="#FF6F6F"/>
<g clip-path="url(#clip0_315_506)">
<path d="M19.9999 29.3314C28.4912 29.3314 35.3748 25.6013 35.3748 21C35.3748 16.3986 28.4912 12.6685 19.9999 12.6685C11.5086 12.6685 4.625 16.3986 4.625 21C4.625 25.6013 11.5086 29.3314 19.9999 29.3314Z" fill="#6181B6"/>
<path d="M23.113 23.6926L23.877 19.4958C24.0506 18.5488 23.9059 17.8432 23.4488 17.3974C23.0089 16.9642 22.2625 16.7537 21.163 16.7537H19.8439L20.2199 14.6739C20.2316 14.5935 20.2144 14.513 20.168 14.4512C20.1217 14.3893 20.0524 14.3521 19.977 14.3521H18.1542C18.0327 14.3521 17.9343 14.445 17.9111 14.5687L17.101 19.0253C17.0258 18.5238 16.8464 18.0905 16.5572 17.7377C16.0249 17.0817 15.1742 16.7537 14.0457 16.7537H10.5102C10.3886 16.7537 10.2902 16.8466 10.267 16.9703L8.62368 25.9887C8.61221 26.0694 8.62941 26.1499 8.67574 26.2117C8.72207 26.2735 8.79134 26.3108 8.86679 26.3108H10.7069C10.8285 26.3108 10.9269 26.2176 10.9501 26.0942L11.3494 23.909H12.715C13.4324 23.909 14.0343 23.8285 14.5088 23.6614C14.9891 23.4941 15.4345 23.2095 15.8223 22.8197C16.1405 22.5101 16.401 22.1636 16.5978 21.7861L16.268 23.5873C16.2563 23.6676 16.2737 23.7483 16.3201 23.8099C16.3664 23.8719 16.4359 23.909 16.5111 23.909H18.3338C18.4554 23.909 18.5538 23.816 18.5769 23.6923L19.474 18.7407H20.724C21.2561 18.7407 21.4125 18.8521 21.4531 18.9016C21.4937 18.945 21.5747 19.106 21.482 19.5949L20.7701 23.5935C20.7584 23.6742 20.7758 23.7544 20.8221 23.8162C20.8685 23.8781 20.9377 23.9153 21.013 23.9153H22.8648C22.9859 23.9092 23.0898 23.8226 23.113 23.6926ZM14.6646 20.2262C14.549 20.8575 14.3347 21.303 14.0221 21.563C13.704 21.8231 13.2003 21.9529 12.5178 21.9529H11.7017L12.2921 18.7095H13.3451C14.1205 18.7095 14.4329 18.8891 14.5545 19.0375C14.7283 19.2421 14.7689 19.6506 14.6646 20.2262Z" fill="white"/>
<path d="M30.9076 17.738C30.3753 17.0819 29.5246 16.7539 28.3961 16.7539H24.8608C24.7392 16.7539 24.6408 16.8469 24.6177 16.9705L22.9798 25.9953C22.9681 26.0756 22.9858 26.1563 23.0319 26.2179C23.0782 26.2799 23.1477 26.317 23.2227 26.317H25.0631C25.1846 26.317 25.2828 26.2242 25.3062 26.1003L25.7055 23.9153H27.0711C27.7886 23.9153 28.3904 23.8349 28.8649 23.6676C29.3454 23.5007 29.7909 23.2159 30.1785 22.826C30.5026 22.5042 30.7746 22.1452 30.9771 21.7551C31.1796 21.3653 31.3241 20.932 31.4111 20.4676C31.6138 19.3162 31.4459 18.4004 30.9076 17.738ZM29.0039 20.2262C28.8886 20.8575 28.6743 21.303 28.3619 21.563C28.0436 21.8231 27.5402 21.9529 26.8573 21.9529H26.0415L26.6317 18.7095H27.6849C28.4603 18.7095 28.7727 18.8891 28.8941 19.0375C29.0734 19.2421 29.1081 19.6506 29.0039 20.2262Z" fill="white"/>
</g>
<defs>
<clipPath id="clip0_315_506">
<rect width="32" height="18" fill="white" transform="translate(4 12)"/>
</clipPath>
</defs>
</svg>
