<svg width="46" height="40" viewBox="0 0 46 40" fill="none" xmlns="http://www.w3.org/2000/svg">
<rect x="0.5" width="40" height="40" rx="5" fill="#F5F5F5"/>
<path d="M34.9336 18.6687L21.8363 5.56619C21.657 5.38669 21.4441 5.2443 21.2097 5.14715C20.9754 5.05 20.7242 5 20.4705 5C20.2168 5 19.9656 5.05 19.7312 5.14715C19.4969 5.2443 19.2839 5.38669 19.1046 5.56619L16.386 8.28592L19.8358 11.7372C20.6383 11.4558 21.557 11.6481 22.1963 12.2877C22.5007 12.5927 22.7131 12.9772 22.8094 13.3973C22.9058 13.8173 22.882 14.256 22.741 14.6632L26.0662 17.9897C26.8705 17.7121 27.7986 17.8913 28.4407 18.5356C28.6542 18.7492 28.8235 19.0028 28.939 19.2819C29.0545 19.5609 29.114 19.86 29.1139 20.1621C29.1139 20.4642 29.0544 20.7633 28.9388 21.0423C28.8232 21.3214 28.6538 21.5749 28.4403 21.7885C28.2267 22.002 27.9732 22.1714 27.6943 22.287C27.4153 22.4025 27.1163 22.462 26.8144 22.4619C26.5124 22.4619 26.2135 22.4023 25.9345 22.2867C25.6556 22.1711 25.4022 22.0016 25.1887 21.788C24.5137 21.1127 24.3469 20.1186 24.6881 19.2868L21.587 16.1844V24.3483C21.8121 24.4597 22.0178 24.6067 22.1963 24.7834C22.4098 24.997 22.5791 25.2505 22.6947 25.5296C22.8102 25.8086 22.8697 26.1076 22.8697 26.4097C22.8697 26.7117 22.8102 27.0107 22.6947 27.2898C22.5791 27.5688 22.4098 27.8223 22.1963 28.0359C21.9829 28.2494 21.7294 28.4188 21.4505 28.5344C21.1716 28.65 20.8727 28.7095 20.5708 28.7095C20.2689 28.7095 19.9699 28.65 19.691 28.5344C19.4121 28.4188 19.1587 28.2494 18.9452 28.0359C18.7315 27.8225 18.5619 27.569 18.4463 27.2899C18.3306 27.0109 18.271 26.7118 18.271 26.4097C18.271 26.1076 18.3306 25.8084 18.4463 25.5294C18.5619 25.2503 18.7315 24.9969 18.9452 24.7834C19.1674 24.5621 19.414 24.3942 19.698 24.2817V16.0419C19.4243 15.9293 19.1674 15.7633 18.9452 15.5401C18.6224 15.2176 18.403 14.8062 18.3148 14.3584C18.2267 13.9106 18.2738 13.4467 18.4502 13.0258L15.0473 9.62328L6.06643 18.5984C5.88686 18.7778 5.74441 18.9909 5.64722 19.2254C5.55003 19.46 5.5 19.7114 5.5 19.9653C5.5 20.2192 5.55003 20.4706 5.64722 20.7052C5.74441 20.9397 5.88686 21.1528 6.06643 21.3322L19.1646 34.4338C19.3439 34.6133 19.5569 34.7557 19.7912 34.8528C20.0256 34.95 20.2768 35 20.5305 35C20.7842 35 21.0353 34.95 21.2697 34.8528C21.5041 34.7557 21.717 34.6133 21.8963 34.4338L34.9336 21.4119C35.1131 21.2325 35.2556 21.0194 35.3528 20.7849C35.45 20.5503 35.5 20.2989 35.5 20.045C35.5 19.7911 35.45 19.5397 35.3528 19.3052C35.2556 19.0706 35.1131 18.8575 34.9336 18.6781" fill="#F03C2E"/>
<circle cx="40.5" cy="35" r="5" fill="#DDC02C"/>
</svg>
