<svg width="85" height="41" viewBox="0 0 85 41" fill="none" xmlns="http://www.w3.org/2000/svg">
<rect y="1" width="80" height="40" rx="5" fill="#F5F5F5"/>
<circle cx="80" cy="36" r="5" fill="#FF9A00"/>
<path d="M83.9323 0.615388C82.755 -0.322765 81.004 -0.154018 79.9234 0.888597L79.5002 1.2964L79.0769 0.888597C77.9984 -0.154018 76.2453 -0.322765 75.068 0.615388C73.7188 1.69215 73.6479 3.62471 74.8553 4.79187L79.0125 8.80564C79.281 9.06479 79.7171 9.06479 79.9857 8.80564L84.1428 4.79187C85.3524 3.62471 85.2815 1.69215 83.9323 0.615388Z" fill="#FF6F6F"/>
<g clip-path="url(#clip0_315_642)">
<path d="M7.99262 20.0858H10.351C11.0597 20.0858 11.58 20.2833 11.9121 20.678C12.2441 21.0729 12.3518 21.6231 12.2352 22.3288C12.1874 22.6183 12.1022 22.8839 11.9794 23.1259C11.8565 23.3679 11.6943 23.589 11.4926 23.789C11.2528 24.0297 10.9844 24.2021 10.6871 24.3062C10.3899 24.4102 10.0098 24.4623 9.54685 24.4623H8.49638L8.23501 26.045H7.00848L7.99262 20.0858ZM9.06335 21.0286L8.65058 23.5282H9.39658C9.89106 23.5282 10.2575 23.4294 10.4961 23.2315C10.7345 23.0337 10.8918 22.7045 10.9679 22.2438C11.0413 21.7995 10.9986 21.486 10.8403 21.3029C10.6819 21.1201 10.3697 21.0286 9.90373 21.0286H9.06335Z" fill="#6C78AF"/>
<path d="M13.6119 18.5031H14.8292L14.5678 20.0858H15.6508C16.3323 20.0858 16.8047 20.2123 17.068 20.4649C17.3315 20.7177 17.4168 21.125 17.324 21.687L16.8656 24.4623H15.6299L16.0662 21.8209C16.1158 21.5206 16.0918 21.3164 15.9941 21.2082C15.8964 21.1001 15.6919 21.0459 15.381 21.0459H14.4095L13.8453 24.4623H12.6278L13.6119 18.5031Z" fill="#6C78AF"/>
<path d="M18.6498 20.0858H21.0082C21.717 20.0858 22.2371 20.2833 22.5692 20.678C22.9013 21.0729 23.009 21.6231 22.8925 22.3288C22.8447 22.6183 22.7593 22.8839 22.6367 23.1259C22.5137 23.3679 22.3513 23.589 22.1498 23.789C21.9099 24.0297 21.6415 24.2021 21.3443 24.3062C21.0471 24.4102 20.667 24.4623 20.2039 24.4623H19.1536L18.8922 26.045H17.6658L18.6498 20.0858ZM19.7207 21.0286L19.3079 23.5282H20.0539C20.5483 23.5282 20.9148 23.4294 21.1532 23.2315C21.3917 23.0337 21.549 22.7045 21.6251 22.2438C21.6984 21.7995 21.6558 21.486 21.4974 21.3029C21.339 21.1201 21.0268 21.0286 20.561 21.0286H19.7207Z" fill="#6C78AF"/>
<path d="M24.9658 17.2367H27.3247L28.361 22.7776L31.2274 17.2367H33.5774L32.3851 24.4574H30.8102L31.8689 18.8331L28.9787 24.4574H27.2721L26.1866 18.7741L25.4093 24.4574H23.7734L24.9658 17.2367Z" fill="#F89C0E"/>
<path d="M36.4084 23.2889H37.5994L38.282 19.1545H39.7625L38.9103 24.315C38.7946 25.0166 38.5355 25.5362 38.1333 25.874C37.7311 26.2115 37.1731 26.3805 36.4595 26.3805H33.5563L33.7338 25.3063H36.3821C36.6663 25.3063 36.8954 25.2413 37.0695 25.1114C37.2433 24.9813 37.3509 24.793 37.3916 24.5462L37.4064 24.4574H36.0959C35.2577 24.4574 34.686 24.301 34.3812 23.9882C34.0761 23.6755 33.9841 23.154 34.1045 22.4236L34.6444 19.1545H36.1082L35.5862 22.3156C35.5202 22.7154 35.54 22.9776 35.6462 23.1021C35.7522 23.2266 36.0062 23.2889 36.4084 23.2889Z" fill="#F89C0E"/>
<path d="M43.7498 17.2367H45.4545L47.5205 24.4574H45.7327L45.3148 22.7387H41.9942L41.0295 24.4574H39.3246L43.7498 17.2367ZM44.3031 18.6705L42.7266 21.4496H45.0029L44.3031 18.6705Z" fill="#F89C0E"/>
<path d="M53.1019 24.4574H50.2579C49.3985 24.4574 48.7674 24.2182 48.3644 23.7398C47.9616 23.2615 47.8311 22.5947 47.9723 21.7396C48.0303 21.3891 48.1336 21.0671 48.2826 20.7739C48.4316 20.4807 48.6282 20.2128 48.8727 19.9703C49.1634 19.6788 49.49 19.4699 49.8522 19.3437C50.2144 19.2176 50.6746 19.1545 51.2324 19.1545H52.5026L52.8193 17.2367H54.2944L53.1019 24.4574ZM51.8147 23.3203L52.3141 20.2968H51.4187C50.8182 20.2968 50.3727 20.4157 50.0817 20.6532C49.7911 20.8909 49.5997 21.2867 49.5083 21.8405C49.4195 22.3781 49.472 22.759 49.6657 22.9835C49.8595 23.208 50.2374 23.3203 50.7996 23.3203H51.8147Z" fill="#F89C0E"/>
<path d="M55.2646 19.1545H60.9499C61.7742 19.1545 62.3432 19.3069 62.6565 19.6113C62.9696 19.9159 63.0699 20.4103 62.957 21.0946L62.4016 24.4574H60.91L61.4352 21.2765C61.4997 20.8865 61.4799 20.6293 61.376 20.5046C61.2717 20.3801 61.0261 20.3178 60.6387 20.3178H59.8081L59.1245 24.4574H57.6106L58.2942 20.3178H56.564L55.8804 24.4574H54.3888L55.2646 19.1545Z" fill="#F89C0E"/>
<path d="M66.2535 18.5519H64.7009L64.918 17.2367H66.4707L66.2535 18.5519ZM65.2783 24.4574H63.7256L64.6012 19.1545H66.1539L65.2783 24.4574Z" fill="#F89C0E"/>
<path d="M67.4345 19.1545H70.2201C71.0619 19.1545 71.6384 19.3045 71.9491 19.604C72.2599 19.9036 72.3581 20.4005 72.2434 21.0946L71.6883 24.4574H70.2075L70.7346 21.2667C70.8 20.8701 70.7775 20.6128 70.6669 20.4949C70.5564 20.3769 70.3052 20.3178 69.9137 20.3178H68.723L68.0394 24.4574H66.5589L67.4345 19.1545Z" fill="#F89C0E"/>
</g>
<defs>
<clipPath id="clip0_315_642">
<rect width="65" height="12" fill="white" transform="translate(7 15)"/>
</clipPath>
</defs>
</svg>
