<svg width="45" height="40" viewBox="0 0 45 40" fill="none" xmlns="http://www.w3.org/2000/svg">
<rect width="40" height="40" rx="5" fill="#F5F5F5"/>
<g clip-path="url(#clip0_237_1263)">
<path d="M11.6212 10.0608C11.6212 8.0786 12.1649 7.00026 15.1666 6.48677C17.2045 6.13755 19.8175 6.0939 22.2549 6.48677C24.18 6.79742 25.8003 8.19937 25.8003 10.0608V16.6006C25.8003 18.5186 24.2272 20.0898 22.2549 20.0898H15.1666C12.7609 20.0898 10.7334 22.0952 10.7334 24.3623V27.5H8.29621C6.23463 27.5 5.03432 26.0467 4.53008 24.0131C3.84993 21.2811 3.87881 19.6533 4.53008 17.0368C5.09474 14.7543 6.899 13.5499 8.96074 13.5499H18.712V12.6769H11.6211V10.0607L11.6212 10.0608Z" fill="url(#paint0_linear_237_1263)"/>
<path d="M25.8005 30.9894C25.8005 32.9716 24.0409 33.9756 22.2551 34.4763C19.5684 35.2312 17.4122 35.1156 15.1668 34.4763C13.2915 33.9423 11.6213 32.851 11.6213 30.9894V24.4496C11.6213 22.5675 13.226 20.9604 15.1668 20.9604H22.2551C24.6161 20.9604 26.6882 18.9655 26.6882 16.6006V13.5502H29.346C31.4103 13.5502 32.3822 15.0496 32.8915 17.0371C33.6005 19.7974 33.632 21.8616 32.8915 24.0134C32.1745 26.1034 31.4076 27.5003 29.346 27.5003H18.7122V28.3733H25.8005V30.9894Z" fill="url(#paint1_linear_237_1263)"/>
<path d="M13.3939 9.62693C13.3939 8.90289 13.9874 8.31738 14.723 8.31738C15.4556 8.31738 16.052 8.90275 16.052 9.62693C16.052 10.3486 15.4558 10.9339 14.723 10.9339C13.9877 10.9339 13.3939 10.3485 13.3939 9.62693ZM21.3697 31.4234C21.3697 30.7017 21.9659 30.1165 22.6987 30.1165C23.4339 30.1165 24.0278 30.7018 24.0278 31.4234C24.0278 32.1474 23.4342 32.733 22.6987 32.733C21.966 32.733 21.3697 32.1476 21.3697 31.4234Z" fill="white"/>
</g>
<circle cx="40" cy="35" r="5" fill="#DDC02C"/>
<defs>
<linearGradient id="paint0_linear_237_1263" x1="25.8005" y1="14.4854" x2="4.03097" y2="14.3083" gradientUnits="userSpaceOnUse">
<stop stop-color="#366A96"/>
<stop offset="1" stop-color="#3679B0"/>
</linearGradient>
<linearGradient id="paint1_linear_237_1263" x1="33.435" y1="24.2751" x2="-9.65829" y2="24.2751" gradientUnits="userSpaceOnUse">
<stop stop-color="#FFC836"/>
<stop offset="1" stop-color="#FFE873"/>
</linearGradient>
<clipPath id="clip0_237_1263">
<rect width="29" height="29" fill="white" transform="translate(4 6)"/>
</clipPath>
</defs>
</svg>
