<?xml version="1.0" encoding="UTF-8"?>
<svg id="Calque_2" data-name="Calque 2" xmlns="http://www.w3.org/2000/svg" viewBox="0 0 447.12 447.82">
  <defs>
    <style>
      .cls-1, .cls-2 {
        stroke-width: 0px;
      }

      .cls-2 {
        fill: #ffd400;
      }
    </style>
  </defs>
  <g id="Calque_1-2" data-name="Calque 1">
    <path class="cls-1" d="M106.52,192.32c0-23.5,19.1-42.6,42.6-42.6h255.4c23.5,0,42.6,19.1,42.6,42.6v212.9c0,23.5-19.1,42.6-42.6,42.6h-255.4c-23.5,0-42.6-19.1-42.6-42.6v-212.9ZM138.52,373.22v21.3c0,5.9,4.8,10.6,10.6,10.6h21.3c5.9,0,10.6-4.8,10.6-10.6v-21.3c0-5.9-4.8-10.6-10.6-10.6h-21.3c-5.9,0-10.6,4.7-10.6,10.6ZM383.22,362.62c-5.9,0-10.6,4.8-10.6,10.6v21.3c0,5.9,4.8,10.6,10.6,10.6h21.3c5.9,0,10.6-4.8,10.6-10.6v-21.3c0-5.9-4.8-10.6-10.6-10.6h-21.3ZM138.52,288.12v21.3c0,5.9,4.8,10.6,10.6,10.6h21.3c5.9,0,10.6-4.8,10.6-10.6v-21.3c0-5.9-4.8-10.6-10.6-10.6h-21.3c-5.9-.1-10.6,4.7-10.6,10.6ZM383.22,277.42c-5.9,0-10.6,4.8-10.6,10.6v21.3c0,5.9,4.8,10.6,10.6,10.6h21.3c5.9,0,10.6-4.8,10.6-10.6v-21.3c0-5.9-4.8-10.6-10.6-10.6h-21.3ZM138.52,202.92v21.3c0,5.9,4.8,10.6,10.6,10.6h21.3c5.9,0,10.6-4.8,10.6-10.6v-21.3c0-5.9-4.8-10.6-10.6-10.6h-21.3c-5.9,0-10.6,4.8-10.6,10.6ZM383.22,192.32c-5.9,0-10.6,4.8-10.6,10.6v21.3c0,5.9,4.8,10.6,10.6,10.6h21.3c5.9,0,10.6-4.8,10.6-10.6v-21.3c0-5.9-4.8-10.6-10.6-10.6h-21.3ZM213.02,213.62v42.6c0,11.8,9.5,21.3,21.3,21.3h85.1c11.8,0,21.3-9.5,21.3-21.3v-42.6c0-11.8-9.5-21.3-21.3-21.3h-85.1c-11.8,0-21.3,9.5-21.3,21.3ZM234.22,320.02c-11.8,0-21.3,9.5-21.3,21.3v42.6c0,11.8,9.5,21.3,21.3,21.3h85.1c11.8,0,21.3-9.5,21.3-21.3v-42.6c0-11.8-9.5-21.3-21.3-21.3h-85.1Z"/>
    <path class="cls-2" d="M106.92,52.42c2.6-4.9,2.8-11-.2-16.1-4.6-7.9-14.7-10.7-22.6-6.1-7.9,4.6-10.7,14.7-6.1,22.6,3,5.2,8.3,8.1,13.8,8.3l3,52.9c.5,8.4-6.9,15.1-15.2,13.8l-46.6-7.2c.4-3.4-.2-7-2.1-10.3-4.6-7.9-14.7-10.7-22.6-6.1s-10.7,14.7-6.1,22.6c4.6,7.9,14.7,10.7,22.6,6.1.1,0,.2-.1.3-.1l68.2,80.8c8.2,9.8,22.3,12.3,33.4,5.9l99.4-57.1c11.1-6.4,16-19.7,11.8-31.8l-35.4-99.6c.1,0,.2-.1.3-.1,7.9-4.6,10.7-14.7,6.1-22.6s-14.7-10.7-22.6-6.1c-7.9,4.6-10.7,14.5-6.2,22.4,1.9,3.2,4.6,5.6,7.8,7l-17.3,43.9c-3.1,7.8-12.6,10.8-19.6,6.2l-44.1-29.3Z"/>
  </g>
</svg>