<?xml version="1.0" encoding="UTF-8"?>
<svg id="Calque_2" data-name="Calque 2" xmlns="http://www.w3.org/2000/svg" xmlns:xlink="http://www.w3.org/1999/xlink" viewBox="0 0 551.6 220.06">
  <defs>
    <style>
      .cls-1 {
        fill: url(#Dégradé_sans_nom_1297);
      }

      .cls-1, .cls-2, .cls-3 {
        stroke-width: 0px;
      }

      .cls-2 {
        fill: #000;
      }

      .cls-3 {
        fill: #fff;
      }
    </style>
    <linearGradient id="Dégradé_sans_nom_1297" data-name="Dégradé sans nom 1297" x1="18.51" y1="109.72" x2="551.6" y2="109.72" gradientUnits="userSpaceOnUse">
      <stop offset="0" stop-color="#ffd02a"/>
      <stop offset="1" stop-color="#e207b9"/>
    </linearGradient>
  </defs>
  <g id="test_color" data-name="test color">
    <ellipse class="cls-2" cx="277.3" cy="110.03" rx="109.02" ry="235.8" transform="translate(147.92 378.84) rotate(-85.94)"/>
    <g>
      <path class="cls-3" d="M530.89,29.84c-1.47-2.5-3.49-4.5-6.07-6.01-2.58-1.51-5.38-2.26-8.39-2.26-4.13,0-7.38.97-9.76,2.92-2.38,1.94-4.09,4.13-5.12,6.54-1.03,2.42-2.58,6.72-4.64,12.91l-39.63,117.81-39.51-116.97c-2.62-8.09-5.18-13.98-7.68-17.67-2.5-3.69-6.76-5.53-12.79-5.53-3.84,0-7.17,1.03-10,3.07-1.38.79-2.63,1.95-3.67,3.55-1.41,1.78-2.39,3.65-2.93,5.62-12.34,24.38-26.91,51.02-54.84,58.65-.08-9.81-1.45-19.46-4.19-28.37-7.79-25.36-33.4-53.13-62.71-45.25-28.88,7.76-36.13,48.58-33.42,73.76.19,1.81.44,3.63.72,5.45-28.84,8.27-57.67,16.55-86.51,24.82l-28.85-71.26c-2.14-5.63-3.91-10.13-5.3-13.51-1.39-3.37-3.09-6.52-5.12-9.46-2.02-2.93-4.68-5.33-7.97-7.2-3.29-1.86-7.4-2.8-12.32-2.8s-8.91.93-12.2,2.8c-3.29,1.87-5.95,4.3-7.97,7.32-2.02,3.02-3.93,6.8-5.71,11.36-1.78,4.56-3.31,8.47-4.58,11.72L5.12,165.13c-1.83,4.52-3.13,8.05-3.93,10.59-.79,2.54-1.19,5-1.19,7.38,0,4.13,1.7,7.82,5.12,11.07,3.41,3.25,7.34,4.88,11.78,4.88,5.24,0,9-1.53,11.3-4.58,2.3-3.05,5.08-8.94,8.33-17.67l8.33-22.37h70.92l8.33,21.9c1.11,2.7,2.44,5.81,3.99,9.34,1.55,3.53,2.99,6.15,4.34,7.85,1.35,1.71,3.01,3.05,5,4.05,1.98.99,4.36,1.49,7.14,1.49,4.76,0,8.82-1.69,12.2-5.06,3.37-3.37,5.06-7.08,5.06-11.13s-1.78-10.11-5.35-18.68l-7.53-18.59c14.69-4.21,29.38-8.43,44.07-12.64-.08.16-.17.32-.24.48-.29.59-.51,1.18-.7,1.76-.19.37-.37.75-.53,1.15-5.26,13.14-5.29,28.6,4.4,39.75,9.01,10.37,23.86,14.75,37.1,16.14,14.68,1.54,30.39-3.07,44.29-11.08,20.66,13.21,47.95,18.87,69.69,5.4,27.28-16.91,23.3-51.23,2.88-71.7-1.33-1.33-2.7-2.6-4.09-3.83,18.86-9.04,32.54-25.09,43.68-43l37.1,100.99c1.51,4.36,3.01,8.49,4.52,12.38,1.51,3.89,3.27,7.36,5.3,10.41,2.02,3.05,4.68,5.51,7.97,7.38,3.29,1.86,7.32,2.8,12.08,2.8s8.79-.95,12.08-2.86c3.29-1.9,5.93-4.34,7.91-7.32,1.98-2.98,3.73-6.43,5.24-10.35,1.51-3.93,3.01-8.07,4.52-12.44l42.24-114c.71-2.06,1.43-4.06,2.14-6.01.71-1.94,1.31-3.93,1.78-5.95.48-2.02.71-3.91.71-5.65,0-2.54-.73-5.06-2.2-7.56ZM54.14,127.89l25.82-71.99,26.3,71.99h-52.12ZM277.36,150.49c-9.56-9.67-17.06-22.1-21.87-35.39,14.42-3.71,29.99-3.88,43.33-.93-.06.27-.12.54-.19.8-3.66,15.19-10.81,26.55-21.27,35.52ZM252.51,61.14c2.09-6.77,6.01-17.93,14.26-19.11,9.51-1.35,19.14,7.05,24.28,14.1,7.07,9.7,10.03,21.74,10.34,33.91-13.87-2.58-28.35-2.43-42.3.1-3.03.55-6.04,1.2-9.04,1.95-1.2-10.75-.5-21.37,2.46-30.94ZM224.99,165.81c-11.88-3.58-14.43-10.28-10.7-21,4.37-8.51,11.07-15.26,19.1-20.36,5.51,14.26,13.53,27.71,23.54,38.98-10.57,4.86-20.51,5.81-31.94,2.37ZM298.97,165.61c-.26-.11-.52-.25-.78-.37,4.53-4.49,8.48-9.3,11.66-14.24,5.31-8.26,9.35-17.71,12.05-27.67,11.17,6.56,21.05,16.18,20.76,28-.54,21.66-29.73,20.31-43.69,14.28Z"/>
      <path class="cls-1" d="M549.39,29.84c-1.47-2.5-3.49-4.5-6.07-6.01-2.58-1.51-5.38-2.26-8.39-2.26-4.13,0-7.38.97-9.76,2.92-2.38,1.94-4.09,4.13-5.12,6.54-1.03,2.42-2.58,6.72-4.64,12.91l-39.63,117.81-39.51-116.97c-2.62-8.09-5.18-13.98-7.68-17.67-2.5-3.69-6.76-5.53-12.79-5.53-3.84,0-7.17,1.03-10,3.07-1.38.79-2.63,1.95-3.67,3.55-1.41,1.78-2.39,3.65-2.93,5.62-12.34,24.38-26.91,51.02-54.84,58.65-.08-9.81-1.45-19.46-4.19-28.37-7.79-25.36-33.4-53.13-62.71-45.25-28.88,7.76-36.13,48.58-33.42,73.76.19,1.81.44,3.63.72,5.45-28.84,8.27-57.67,16.55-86.51,24.82l-28.85-71.26c-2.14-5.63-3.91-10.13-5.3-13.51-1.39-3.37-3.09-6.52-5.12-9.46-2.02-2.93-4.68-5.33-7.97-7.2-3.29-1.86-7.4-2.8-12.32-2.8s-8.91.93-12.2,2.8c-3.29,1.87-5.95,4.3-7.97,7.32-2.02,3.02-3.93,6.8-5.71,11.36-1.78,4.56-3.31,8.47-4.58,11.72l-44.62,113.28c-1.83,4.52-3.13,8.05-3.93,10.59-.79,2.54-1.19,5-1.19,7.38,0,4.13,1.7,7.82,5.12,11.07,3.41,3.25,7.34,4.88,11.78,4.88,5.24,0,9-1.53,11.3-4.58,2.3-3.05,5.08-8.94,8.33-17.67l8.33-22.37h70.92l8.33,21.9c1.11,2.7,2.44,5.81,3.99,9.34,1.55,3.53,2.99,6.15,4.34,7.85,1.35,1.71,3.01,3.05,5,4.05,1.98.99,4.36,1.49,7.14,1.49,4.76,0,8.82-1.69,12.2-5.06,3.37-3.37,5.06-7.08,5.06-11.13s-1.78-10.11-5.35-18.68l-7.53-18.59c14.69-4.21,29.38-8.43,44.07-12.64-.08.16-.17.32-.24.48-.29.59-.51,1.18-.7,1.76-.19.37-.37.75-.53,1.15-5.26,13.14-5.29,28.6,4.4,39.75,9.01,10.37,23.86,14.75,37.1,16.14,14.68,1.54,30.39-3.07,44.29-11.08,20.66,13.21,47.95,18.87,69.69,5.4,27.28-16.91,23.3-51.23,2.88-71.7-1.33-1.33-2.7-2.6-4.09-3.83,18.86-9.04,32.54-25.09,43.68-43l37.1,100.99c1.51,4.36,3.01,8.49,4.52,12.38,1.51,3.89,3.27,7.36,5.3,10.41,2.02,3.05,4.68,5.51,7.97,7.38,3.29,1.86,7.32,2.8,12.08,2.8s8.79-.95,12.08-2.86c3.29-1.9,5.93-4.34,7.91-7.32,1.98-2.98,3.73-6.43,5.24-10.35,1.51-3.93,3.01-8.07,4.52-12.44l42.24-114c.71-2.06,1.43-4.06,2.14-6.01.71-1.94,1.31-3.93,1.78-5.95.48-2.02.71-3.91.71-5.65,0-2.54-.73-5.06-2.2-7.56ZM72.65,127.89l25.82-71.99,26.3,71.99h-52.12ZM295.86,150.49c-9.56-9.67-17.06-22.1-21.87-35.39,14.42-3.71,29.99-3.88,43.33-.93-.06.27-.12.54-.19.8-3.66,15.19-10.81,26.55-21.27,35.52ZM271.02,61.14c2.09-6.77,6.01-17.93,14.26-19.11,9.51-1.35,19.14,7.05,24.28,14.1,7.07,9.7,10.03,21.74,10.34,33.91-13.87-2.58-28.35-2.43-42.3.1-3.03.55-6.04,1.2-9.04,1.95-1.2-10.75-.5-21.37,2.46-30.94ZM243.5,165.81c-11.88-3.58-14.43-10.28-10.7-21,4.37-8.51,11.07-15.26,19.1-20.36,5.51,14.26,13.53,27.71,23.54,38.98-10.57,4.86-20.51,5.81-31.94,2.37ZM317.48,165.61c-.26-.11-.52-.25-.78-.37,4.53-4.49,8.48-9.3,11.66-14.24,5.31-8.26,9.35-17.71,12.05-27.67,11.17,6.56,21.05,16.18,20.76,28-.54,21.66-29.73,20.31-43.69,14.28Z"/>
    </g>
  </g>
</svg>