<?xml version="1.0" encoding="UTF-8"?>
<svg id="Calque_2" data-name="Calque 2" xmlns="http://www.w3.org/2000/svg" viewBox="0 0 13 12">
  <defs>
    <style>
      .cls-1 {
        fill: #4c4c6d;
        stroke-width: 0px;
      }
    </style>
  </defs>
  <g id="Calque_1-2" data-name="Calque 1">
    <path class="cls-1" d="M4.24,7.25c-1.02.06-1.94.42-2.47,1.69-.06.15-.2.23-.37.23-.28,0-1.15-.65-1.4-.81,0,1.93.96,3.63,3.25,3.63,1.93,0,3.25-1.03,3.25-2.82,0-.07-.02-.14-.02-.21l-2.23-1.72ZM11.63,0c-.38,0-.75.16-1.02.39-5.19,4.28-5.73,4.38-5.73,5.64,0,.32.08.63.22.91l1.62,1.25c.18.04.37.07.57.07,1.58,0,2.49-1.07,5.36-6.01.19-.34.35-.7.35-1.08,0-.68-.66-1.16-1.37-1.16Z"/>
  </g>
</svg>